REM DIRINDEX 1\2,1\3,1\4,1\5,1\6
REM DIRNAME folder01,folder02,folder03,folder04,folder05,folder06
TITLE ""
FILE "DISC3Track29.mp3" MP3
  TRACK 01 AUDIO
    TITLE "0:"
    INDEX 01 00:00:00
  TRACK 02 AUDIO
    TITLE "3:cjc129_2866"
    INDEX 01 00:00:05
  TRACK 03 AUDIO
    TITLE "0:"
    INDEX 01 00:03:33
  TRACK 04 AUDIO
    TITLE "5:cjc129_2867"
    INDEX 01 00:03:63
  TRACK 05 AUDIO
    TITLE "0:"
    INDEX 01 00:07:58
  TRACK 06 AUDIO
    TITLE "4:cjc129_2868"
    INDEX 01 00:08:46
  TRACK 07 AUDIO
    TITLE "0:"
    INDEX 01 00:11:74
  TRACK 08 AUDIO
    TITLE "6:cjc129_2869"
    INDEX 01 00:12:28
  TRACK 09 AUDIO
    TITLE "0:"
    INDEX 01 00:16:73
  TRACK 10 AUDIO
    TITLE "3:cjc129_2870"
    INDEX 01 00:18:46
  TRACK 11 AUDIO
    TITLE "0:"
    INDEX 01 00:19:65
  TRACK 12 AUDIO
    TITLE "5:cjc129_2871"
    INDEX 01 00:20:20
  TRACK 13 AUDIO
    TITLE "0:"
    INDEX 01 00:21:74
  TRACK 14 AUDIO
    TITLE "4:cjc129_2872"
    INDEX 01 00:22:64
  TRACK 15 AUDIO
    TITLE "0:"
    INDEX 01 00:24:08
  TRACK 16 AUDIO
    TITLE "6:cjc129_2873"
    INDEX 01 00:24:37
  TRACK 17 AUDIO
    TITLE "0:"
    INDEX 01 00:29:05
  TRACK 18 AUDIO
    TITLE "3:cjc129_2874"
    INDEX 01 00:30:54
  TRACK 19 AUDIO
    TITLE "0:"
    INDEX 01 00:31:71
  TRACK 20 AUDIO
    TITLE "5:cjc129_2875"
    INDEX 01 00:32:29
  TRACK 21 AUDIO
    TITLE "0:"
    INDEX 01 00:35:39
  TRACK 22 AUDIO
    TITLE "4:cjc129_2876"
    INDEX 01 00:36:31
  TRACK 23 AUDIO
    TITLE "0:"
    INDEX 01 00:37:48
  TRACK 24 AUDIO
    TITLE "6:cjc129_2877"
    INDEX 01 00:38:06
  TRACK 25 AUDIO
    TITLE "0:"
    INDEX 01 00:43:05
  TRACK 26 AUDIO
    TITLE "3:cjc129_2878"
    INDEX 01 00:44:54
  TRACK 27 AUDIO
    TITLE "0:"
    INDEX 01 00:46:25
  TRACK 28 AUDIO
    TITLE "5:cjc129_2879"
    INDEX 01 00:46:54
  TRACK 29 AUDIO
    TITLE "0:"
    INDEX 01 00:48:12
  TRACK 30 AUDIO
    TITLE "4:cjc129_2880"
    INDEX 01 00:49:02
  TRACK 31 AUDIO
    TITLE "0:"
    INDEX 01 00:50:46
  TRACK 32 AUDIO
    TITLE "6:cjc129_2881"
    INDEX 01 00:51:01
  TRACK 33 AUDIO
    TITLE "0:"
    INDEX 01 00:54:42
  TRACK 34 AUDIO
    TITLE "3:cjc129_2882"
    INDEX 01 00:56:18
  TRACK 35 AUDIO
    TITLE "0:"
    INDEX 01 00:57:60
  TRACK 36 AUDIO
    TITLE "5:cjc129_2883"
    INDEX 01 00:58:13
  TRACK 37 AUDIO
    TITLE "0:"
    INDEX 01 00:59:49
  TRACK 38 AUDIO
    TITLE "4:cjc129_2884"
    INDEX 01 01:00:39
  TRACK 39 AUDIO
    TITLE "0:"
    INDEX 01 01:02:06
  TRACK 40 AUDIO
    TITLE "6:cjc129_2885"
    INDEX 01 01:02:38
  TRACK 41 AUDIO
    TITLE "0:"
    INDEX 01 01:06:69
  TRACK 42 AUDIO
    TITLE "2:cjc129_2886"
    INDEX 01 01:08:44
  TRACK 43 AUDIO
    TITLE "0:"
    INDEX 01 01:12:64
  TRACK 44 AUDIO
    TITLE "3:cjc129_2887"
    INDEX 01 01:14:02
  TRACK 45 AUDIO
    TITLE "0:"
    INDEX 01 01:15:56
  TRACK 46 AUDIO
    TITLE "5:cjc129_2888"
    INDEX 01 01:16:11
  TRACK 47 AUDIO
    TITLE "0:"
    INDEX 01 01:19:28
  TRACK 48 AUDIO
    TITLE "4:cjc129_2889"
    INDEX 01 01:20:18
  TRACK 49 AUDIO
    TITLE "0:"
    INDEX 01 01:21:72
  TRACK 50 AUDIO
    TITLE "6:cjc129_2890"
    INDEX 01 01:22:27
  TRACK 51 AUDIO
    TITLE "0:"
    INDEX 01 01:26:38
  TRACK 52 AUDIO
    TITLE "3:cjc129_2891"
    INDEX 01 01:28:10
  TRACK 53 AUDIO
    TITLE "0:"
    INDEX 01 01:29:68
  TRACK 54 AUDIO
    TITLE "5:cjc129_2892"
    INDEX 01 01:30:22
  TRACK 55 AUDIO
    TITLE "0:"
    INDEX 01 01:31:63
  TRACK 56 AUDIO
    TITLE "4:cjc129_2893"
    INDEX 01 01:32:53
  TRACK 57 AUDIO
    TITLE "0:"
    INDEX 01 01:34:36
  TRACK 58 AUDIO
    TITLE "6:cjc129_2894"
    INDEX 01 01:34:63
  TRACK 59 AUDIO
    TITLE "0:"
    INDEX 01 01:39:21
  TRACK 60 AUDIO
    TITLE "3:cjc129_2895"
    INDEX 01 01:40:70
  TRACK 61 AUDIO
    TITLE "0:"
    INDEX 01 01:42:02
  TRACK 62 AUDIO
    TITLE "5:cjc129_2896"
    INDEX 01 01:42:33
  TRACK 63 AUDIO
    TITLE "0:"
    INDEX 01 01:46:51
  TRACK 64 AUDIO
    TITLE "4:cjc129_2897"
    INDEX 01 01:47:42
  TRACK 65 AUDIO
    TITLE "0:"
    INDEX 01 01:48:48
  TRACK 66 AUDIO
    TITLE "6:cjc129_2898"
    INDEX 01 01:49:04
  TRACK 67 AUDIO
    TITLE "0:"
    INDEX 01 01:52:53
